<svg width="21" height="21" viewBox="0 0 21 21" fill="none" xmlns="http://www.w3.org/2000/svg"><path opacity=".1" fill-rule="evenodd" clip-rule="evenodd" d="M8.918.468c0 .01-.035.02-.077.02-.043 0-.078.008-.078.02 0 .01-.026.02-.057.02-.032 0-.058.008-.058.019 0 .01-.024.02-.054.02a.104.104 0 00-.081.04c-.015.021-.043.04-.062.04-.02 0-.035.008-.035.019s-.013.02-.029.02c-.035 0-.318.287-.318.323 0 .014-.017.038-.038.054-.021.016-.039.044-.039.064 0 .02-.008.035-.019.035-.01 0-.02.018-.02.04 0 .022-.008.04-.018.04-.011 0-.02.017-.02.04 0 .021-.008.039-.02.039-.01 0-.018.027-.018.06 0 .032-.009.059-.02.059-.011 0-.019.086-.019.218 0 .133-.007.219-.02.219-.01 0-.018.026-.018.06 0 .032.008.059.019.059.03 0 .023.177-.008.21a.123.123 0 01-.078.028c-.027 0-.05.009-.05.02 0 .01-.025.02-.057.02s-.058.008-.058.02c0 .01-.026.02-.058.02-.031 0-.057.008-.057.019 0 .01-.026.02-.058.02s-.058.009-.058.02c0 .01-.017.02-.039.02-.02 0-.038.008-.038.02 0 .01-.026.02-.058.02s-.058.008-.058.02c0 .01-.026.019-.058.019s-.058.009-.058.02c0 .01-.017.02-.038.02-.021 0-.039.009-.039.02 0 .01-.017.02-.038.02-.021 0-.039.008-.039.02 0 .01-.026.019-.058.019-.031 0-.057.009-.057.02 0 .01-.018.02-.039.02s-.039.009-.039.02c0 .01-.017.02-.038.02-.021 0-.039.008-.039.02 0 .01-.017.019-.038.019-.021 0-.039.009-.039.02 0 .01-.017.02-.038.02-.022 0-.039.009-.039.02 0 .01-.017.02-.038.02-.022 0-.039.008-.039.02 0 .01-.017.02-.039.02-.02 0-.038.008-.038.019 0 .01-.017.02-.039.02-.02 0-.038.009-.038.02 0 .054-.076.002-.232-.16a1.238 1.238 0 00-.193-.178c-.013 0-.047-.027-.076-.06-.03-.032-.068-.059-.085-.059s-.031-.009-.031-.02c0-.01-.017-.02-.039-.02-.02 0-.038-.008-.038-.02 0-.01-.018-.02-.039-.02s-.038-.008-.038-.019c0-.01-.026-.02-.058-.02s-.058-.009-.058-.02c0-.01-.035-.02-.077-.02-.042 0-.077-.008-.077-.02s-.09-.02-.232-.02c-.14 0-.23.008-.23.02s-.036.02-.078.02-.077.01-.077.02c0 .011-.026.02-.058.02s-.058.01-.058.02-.017.02-.038.02c-.021 0-.039.009-.039.02 0 .01-.015.02-.034.02-.019 0-.047.017-.062.04-.016.021-.04.039-.053.039-.013 0-.445.433-.96.962-.514.53-.934.974-.934.988 0 .014-.018.038-.039.054s-.038.045-.038.064c0 .02-.01.035-.02.035s-.019.018-.019.04c0 .022-.009.04-.02.04-.01 0-.018.027-.018.06 0 .032-.01.059-.02.059s-.02.036-.02.08c0 .043-.008.079-.018.079-.012 0-.02.099-.02.258 0 .158.008.258.02.258.01 0 .019.035.019.079s.009.08.02.08c.01 0 .018.026.018.059s.01.06.02.06.02.017.02.04c-.001.02.008.039.018.039.01 0 .02.016.02.035 0 .02.017.048.038.064.021.016.039.04.039.055 0 .014.095.123.212.243.19.195.248.278.193.278-.011 0-.02.017-.02.04 0 .021-.008.039-.019.039-.01 0-.02.018-.02.04 0 .021-.008.04-.019.04-.01 0-.019.017-.019.039s-.009.04-.02.04c-.01 0-.018.018-.018.04 0 .021-.01.039-.02.039s-.019.018-.019.04c0 .022-.009.04-.02.04-.01 0-.019.017-.019.04 0 .02-.008.039-.019.039-.01 0-.02.018-.02.04 0 .021-.008.04-.018.04-.01 0-.02.026-.02.059 0 .032-.008.06-.019.06-.01 0-.02.017-.02.039s-.008.04-.018.04c-.011 0-.02.017-.02.04 0 .021-.008.039-.019.039-.01 0-.02.027-.02.06 0 .032-.008.06-.019.06-.01 0-.019.026-.019.059 0 .032-.009.06-.02.06-.01 0-.018.017-.018.039s-.01.04-.02.04-.019.026-.019.059-.009.06-.02.06c-.01 0-.018.026-.018.06 0 .032-.01.059-.02.059s-.02.026-.02.06c0 .032-.008.059-.018.059-.01 0-.02.023-.02.05a.13.13 0 01-.027.08c-.031.032-.204.04-.204.009 0-.011-.026-.02-.058-.02s-.058.009-.058.02c0 .012-.077.02-.192.02-.116 0-.193.007-.193.02 0 .01-.035.02-.077.02-.043 0-.077.008-.077.019 0 .01-.018.02-.039.02s-.038.009-.038.02c0 .01-.018.02-.039.02s-.039.008-.039.02c0 .01-.015.02-.034.02-.019 0-.047.017-.062.039s-.039.04-.053.04c-.035 0-.313.29-.313.327 0 .016-.009.03-.02.03-.01 0-.019.016-.019.035 0 .02-.017.048-.038.064a.11.11 0 00-.039.084c0 .03-.009.055-.02.055-.01 0-.018.027-.018.06 0 .032-.01.059-.02.059s-.019.036-.019.08c0 .043-.009.079-.02.079-.012 0-.019.463-.019 1.35 0 .886.007 1.349.02 1.349.01 0 .019.035.019.079s.009.08.02.08c.01 0 .019.026.019.059s.008.06.019.06c.01 0 .02.024.02.055a.11.11 0 00.038.083c.02.016.038.045.038.064 0 .02.009.036.02.036.01 0 .019.013.019.03 0 .036.278.327.313.327.014 0 .038.018.053.04.015.021.043.04.062.04.019 0 .034.008.034.019 0 .01.018.02.039.02s.038.009.038.02c0 .01.018.02.04.02.02 0 .038.008.038.02 0 .01.034.02.077.02.042 0 .077.008.077.02 0 .01.07.019.173.019.103 0 .174.008.174.02 0 .01.026.02.058.02.031 0 .057-.01.057-.02 0-.011.049-.02.108-.02.12 0 .162.028.162.108 0 .028.01.05.02.05s.019.027.019.06.009.06.02.06c.01 0 .018.027.018.06 0 .032.01.059.02.059s.02.027.02.06c-.001.032.008.059.018.059.01 0 .02.018.02.04 0 .021.008.04.019.04.01 0 .02.026.02.059s.008.06.018.06c.011 0 .02.026.02.059s.008.06.019.06c.01 0 .02.017.02.04 0 .02.008.039.019.039.01 0 .019.018.019.04 0 .021.008.04.02.04.01 0 .018.026.018.059 0 .032.01.06.02.06s.019.017.019.039.009.04.02.04c.01 0 .018.018.018.04 0 .021.01.039.02.039s.02.018.02.04c-.001.021.008.04.018.04.01 0 .02.017.02.04 0 .02.008.039.019.039.01 0 .02.018.02.04 0 .021.008.04.018.04.011 0 .02.017.02.039s.008.04.019.04c.01 0 .02.017.02.04 0 .021.008.039.019.039.055 0-.002.082-.193.278-.117.12-.212.228-.212.243 0 .014-.018.039-.039.054-.021.016-.038.045-.038.064 0 .02-.01.036-.02.036s-.019.018-.019.04c0 .021-.009.039-.02.039-.01 0-.018.027-.018.06 0 .032-.01.059-.02.059s-.02.027-.02.06c0 .032-.008.06-.018.06-.012 0-.02.112-.02.297s.008.297.02.297c.01 0 .019.036.019.08 0 .044.009.08.02.08.01 0 .018.017.018.039s.01.04.02.04.02.017.02.04c-.001.021.008.039.018.039.01 0 .02.018.02.04 0 .021.008.04.019.04.01 0 .02.013.02.03 0 .018.034.066.076.108a.324.324 0 01.077.098c0 .028 1.594 1.668 1.621 1.668.012 0 .054.036.095.08.04.044.088.08.105.08.016 0 .03.008.03.019 0 .01.017.02.039.02.02 0 .038.009.038.02 0 .01.018.02.039.02.02 0 .038.008.038.02 0 .01.026.02.058.02s.058.008.058.02c0 .01.026.019.058.019s.058.009.058.02c0 .012.102.02.27.02.167 0 .27-.008.27-.02 0-.011.034-.02.076-.02.043 0 .078-.009.078-.02 0-.01.017-.02.038-.02.021 0 .039-.009.039-.02 0-.01.024-.02.053-.02a.104.104 0 00.082-.04c.015-.021.04-.039.057-.039s.043-.018.058-.04c.016-.021.04-.04.053-.04.014 0 .112-.088.217-.198.173-.179.25-.234.25-.178 0 .01.018.02.04.02.02 0 .038.009.038.02 0 .01.017.02.038.02.022 0 .039.008.039.02 0 .01.017.019.039.019.02 0 .038.009.038.02 0 .01.017.02.039.02.02 0 .038.009.038.02 0 .01.018.02.039.02s.038.008.038.02c0 .01.018.02.039.02s.038.008.038.019c0 .01.018.02.039.02s.039.009.039.02c0 .01.026.02.057.02.032 0 .058.008.058.02 0 .01.018.02.039.02s.038.008.038.019c0 .01.026.02.058.02s.058.009.058.02c0 .01.017.02.039.02.02 0 .038.008.038.02 0 .01.026.02.058.02s.058.008.058.019c0 .01.017.02.038.02.022 0 .039.009.039.02 0 .01.026.02.058.02s.058.008.058.02c0 .01.026.02.057.02.032 0 .058.008.058.02 0 .01.026.019.058.019s.058.009.058.02c0 .01.022.02.05.02.077 0 .104.043.104.167 0 .06-.009.11-.02.11-.01 0-.018.027-.018.06s.008.06.019.06.02.072.02.178.007.179.018.179.02.035.02.08c0 .043.008.078.019.078.01 0 .02.018.02.04 0 .022.008.04.019.04.01 0 .019.018.019.04 0 .021.008.04.02.04.01 0 .018.015.018.035 0 .019.018.048.039.064.021.015.038.04.038.054 0 .036.283.323.318.323.016 0 .03.008.03.02 0 .01.015.02.034.02.019 0 .047.017.062.039.016.023.05.04.081.04.03 0 .054.009.054.02 0 .01.026.02.058.02.031 0 .057.008.057.02 0 .01.035.019.078.019.042 0 .077.009.077.02 0 .013.45.02 1.31.02.862 0 1.311-.007 1.311-.02 0-.011.035-.02.078-.02.042 0 .077-.009.077-.02 0-.01.026-.02.057-.02.032 0 .058-.009.058-.02 0-.01.024-.02.054-.02a.104.104 0 00.081-.04c.015-.02.043-.039.062-.039.02 0 .035-.009.035-.02 0-.01.013-.02.029-.02.035 0 .318-.286.318-.322 0-.014.017-.039.038-.054.021-.016.039-.045.039-.064 0-.02.008-.036.019-.036.01 0 .02-.018.02-.04 0-.021.008-.04.019-.04.01 0 .019-.017.019-.039s.008-.04.02-.04c.01 0 .018-.035.018-.079s.01-.08.02-.08.019-.065.019-.158.008-.159.02-.159c.01 0 .019-.027.019-.06 0-.032-.01-.059-.02-.059s-.019-.056-.019-.13c0-.145.024-.187.105-.187.027 0 .05-.01.05-.02 0-.011.025-.02.057-.02s.058-.009.058-.02c0-.01.026-.02.058-.02s.058-.009.058-.02c0-.01.026-.02.057-.02.032 0 .058-.008.058-.02 0-.01.018-.02.039-.02s.038-.008.038-.019c0-.01.026-.02.058-.02s.058-.009.058-.02c0-.01.026-.02.058-.02s.058-.008.058-.02c0-.01.017-.02.038-.02.021 0 .039-.008.039-.019s.017-.02.038-.02c.021 0 .039-.009.039-.02 0-.01.026-.02.058-.02.031 0 .057-.009.057-.02 0-.01.018-.02.04-.02.02 0 .038-.008.038-.02 0-.01.017-.019.038-.019.021 0 .039-.009.039-.02 0-.01.017-.02.038-.02.021 0 .039-.009.039-.02 0-.01.017-.02.038-.02.022 0 .039-.008.039-.02 0-.01.017-.019.039-.019.02 0 .038-.009.038-.02 0-.01.017-.02.039-.02.02 0 .038-.009.038-.02 0-.01.018-.02.039-.02.02 0 .038-.008.038-.02 0-.056.08.002.27.2.116.12.222.217.236.217.014 0 .038.018.053.04.016.022.044.04.062.04.02 0 .035.009.035.02 0 .01.017.02.038.02.021 0 .039.008.039.02 0 .01.026.02.058.02.031 0 .057.008.057.02 0 .01.027.019.058.019.032 0 .058.009.058.02 0 .012.11.02.29.02s.288-.008.288-.02c0-.011.035-.02.078-.02.042 0 .077-.009.077-.02 0-.01.017-.02.038-.02.021 0 .039-.009.039-.02 0-.01.017-.02.038-.02.022 0 .039-.008.039-.02 0-.01.017-.02.039-.02.02 0 .038-.008.038-.019 0-.01.014-.02.03-.02.017 0 .064-.035.105-.08a.32.32 0 01.095-.079c.027 0 1.62-1.64 1.62-1.668 0-.012.035-.056.078-.098.042-.042.077-.09.077-.107 0-.018.009-.032.02-.032.01 0 .018-.017.018-.04 0-.021.01-.039.02-.039s.019-.018.019-.04c0-.021.009-.04.02-.04.01 0 .019-.026.019-.059s.008-.06.019-.06c.01 0 .02-.026.02-.059s.008-.06.018-.06c.012 0 .02-.105.02-.277 0-.172-.008-.278-.02-.278-.01 0-.019-.036-.019-.08 0-.043-.008-.079-.02-.079-.01 0-.018-.018-.018-.04 0-.022-.01-.04-.02-.04s-.019-.017-.019-.039-.009-.04-.02-.04c-.01 0-.019-.018-.019-.04 0-.021-.008-.04-.019-.04-.01 0-.02-.015-.02-.034 0-.02-.016-.049-.038-.064-.02-.016-.038-.04-.038-.055 0-.014-.087-.115-.193-.223-.174-.178-.228-.258-.174-.258.011 0 .02-.018.02-.04 0-.022.009-.04.02-.04.01 0 .018-.017.018-.04 0-.021.01-.039.02-.039s.019-.018.019-.04c0-.021.009-.04.02-.04.01 0 .018-.017.018-.039s.01-.04.02-.04.019-.018.019-.04c0-.021.009-.039.02-.039.01 0 .019-.018.019-.04 0-.021.008-.04.019-.04.01 0 .02-.017.02-.04 0-.02.008-.039.018-.039.011 0 .02-.027.02-.06 0-.032.008-.059.019-.059.01 0 .02-.018.02-.04 0-.021.008-.04.018-.04.011 0 .02-.017.02-.039s.008-.04.02-.04c.01 0 .018-.026.018-.06 0-.032.01-.059.02-.059s.019-.026.019-.06c0-.032.009-.059.02-.059.01 0 .018-.018.018-.04 0-.021.01-.04.02-.04s.019-.026.019-.059c0-.032.009-.06.02-.06.01 0 .019-.026.019-.059 0-.032.008-.06.019-.06.01 0 .02-.026.02-.059s.008-.06.018-.06c.011 0 .02-.022.02-.05 0-.084.041-.108.181-.108.072 0 .127.009.127.02 0 .01.026.02.058.02s.058-.01.058-.02c0-.012.064-.02.154-.02s.154-.008.154-.02c0-.01.035-.02.077-.02.043 0 .078-.009.078-.02 0-.01.017-.02.038-.02.021 0 .039-.008.039-.02 0-.01.017-.02.038-.02.021 0 .039-.008.039-.019 0-.01.015-.02.034-.02.019 0 .047-.018.062-.04.015-.021.04-.04.053-.04.035 0 .313-.29.313-.326 0-.017.009-.03.02-.03.01 0 .019-.016.019-.036 0-.02.017-.048.039-.064a.11.11 0 00.038-.083c0-.03.009-.056.02-.056.01 0 .019-.026.019-.06 0-.032.008-.059.019-.059.01 0 .02-.035.02-.079s.008-.08.018-.08c.013 0 .02-.462.02-1.349 0-.886-.007-1.35-.02-1.35-.01 0-.019-.035-.019-.079 0-.043-.008-.079-.02-.079-.01 0-.018-.027-.018-.06 0-.032-.01-.06-.02-.06s-.019-.024-.019-.054a.11.11 0 00-.038-.084c-.022-.016-.04-.044-.04-.064 0-.02-.008-.035-.018-.035-.011 0-.02-.014-.02-.03 0-.037-.278-.327-.313-.327-.014 0-.038-.018-.053-.04-.015-.022-.043-.04-.062-.04-.019 0-.034-.009-.034-.02 0-.01-.018-.02-.039-.02s-.038-.008-.038-.02c0-.01-.018-.02-.039-.02s-.039-.008-.039-.019c0-.01-.034-.02-.077-.02-.042 0-.077-.009-.077-.02 0-.011-.07-.02-.173-.02-.103 0-.174-.008-.174-.02 0-.01-.026-.02-.058-.02-.031 0-.057.01-.057.02 0 .012-.049.02-.108.02-.12 0-.162-.028-.162-.107 0-.028-.009-.051-.02-.051-.01 0-.019-.027-.019-.06s-.008-.06-.02-.06c-.01 0-.018-.026-.018-.059s-.01-.06-.02-.06-.019-.026-.019-.059-.009-.06-.02-.06c-.01 0-.019-.017-.019-.04 0-.021-.008-.039-.019-.039-.01 0-.02-.027-.02-.06 0-.032-.008-.059-.018-.059-.01 0-.02-.027-.02-.06 0-.032-.008-.059-.019-.059-.01 0-.02-.018-.02-.04 0-.022-.008-.04-.018-.04-.011 0-.02-.017-.02-.04 0-.02-.008-.039-.019-.039-.01 0-.02-.027-.02-.06 0-.032-.008-.059-.019-.059-.01 0-.019-.018-.019-.04 0-.021-.009-.04-.02-.04-.01 0-.018-.017-.018-.039s-.01-.04-.02-.04-.019-.017-.019-.04c0-.021-.009-.039-.02-.039-.01 0-.018-.018-.018-.04 0-.021-.01-.04-.02-.04s-.02-.017-.02-.039-.008-.04-.018-.04c-.01 0-.02-.018-.02-.04 0-.021-.008-.04-.019-.04-.01 0-.02-.017-.02-.039s-.008-.04-.018-.04c-.054 0-.003-.077.154-.238.095-.097.173-.187.173-.2 0-.012.026-.047.058-.077.032-.031.058-.07.058-.088 0-.017.009-.032.02-.032.01 0 .018-.017.018-.04 0-.021.01-.039.02-.039s.019-.018.019-.04c0-.021.009-.04.02-.04.01 0 .019-.026.019-.059s.008-.06.019-.06c.01 0 .02-.035.02-.079 0-.043.008-.08.018-.08.012 0 .02-.092.02-.237 0-.146-.008-.238-.02-.238-.01 0-.019-.036-.019-.08 0-.043-.008-.08-.02-.08-.01 0-.018-.026-.018-.059 0-.032-.01-.06-.02-.06s-.019-.017-.019-.039-.009-.04-.02-.04c-.01 0-.019-.015-.019-.035 0-.02-.017-.048-.038-.064-.021-.016-.039-.04-.039-.054 0-.033-1.862-1.95-1.894-1.95-.014 0-.037-.018-.053-.04-.015-.022-.043-.04-.062-.04-.019 0-.034-.008-.034-.02 0-.01-.017-.02-.039-.02-.02 0-.038-.008-.038-.019 0-.01-.026-.02-.058-.02s-.058-.009-.058-.02c0-.01-.035-.02-.077-.02-.042 0-.077-.008-.077-.02s-.096-.02-.25-.02c-.155 0-.251.008-.251.02s-.035.02-.077.02c-.043 0-.078.01-.078.02 0 .011-.026.02-.057.02-.032 0-.058.01-.058.02s-.018.02-.039.02c-.02 0-.038.009-.038.02 0 .01-.016.02-.035.02-.018 0-.046.017-.062.04-.015.021-.039.039-.053.039-.014 0-.12.098-.236.218-.19.197-.27.256-.27.199 0-.011-.017-.02-.038-.02-.021 0-.039-.01-.039-.02 0-.011-.017-.02-.038-.02-.022 0-.039-.009-.039-.02 0-.01-.017-.02-.038-.02-.022 0-.039-.009-.039-.02 0-.01-.017-.02-.039-.02-.02 0-.038-.008-.038-.02 0-.01-.018-.019-.039-.019-.02 0-.038-.009-.038-.02 0-.01-.018-.02-.039-.02s-.038-.009-.038-.02c0-.01-.018-.02-.039-.02s-.039-.008-.039-.02c0-.01-.026-.019-.057-.019-.032 0-.058-.009-.058-.02 0-.01-.018-.02-.039-.02-.02 0-.038-.009-.038-.02 0-.01-.018-.02-.039-.02s-.038-.008-.038-.02c0-.01-.026-.02-.058-.02s-.058-.008-.058-.019c0-.01-.026-.02-.058-.02s-.058-.009-.058-.02c0-.01-.017-.02-.038-.02-.022 0-.039-.008-.039-.02 0-.01-.026-.02-.058-.02-.031 0-.057-.008-.057-.019 0-.01-.027-.02-.058-.02-.032 0-.058-.009-.058-.02 0-.01-.026-.02-.058-.02s-.058-.008-.058-.02c0-.01-.022-.02-.05-.02-.077 0-.104-.043-.104-.167 0-.06.009-.11.02-.11.01 0 .019-.027.019-.06 0-.032-.01-.06-.02-.06-.011 0-.019-.072-.019-.178s-.008-.178-.02-.178c-.01 0-.019-.036-.019-.08 0-.043-.008-.08-.019-.08-.01 0-.02-.017-.02-.039s-.008-.04-.018-.04c-.011 0-.02-.017-.02-.04 0-.021-.008-.039-.019-.039-.01 0-.02-.016-.02-.035 0-.02-.017-.048-.038-.064-.021-.016-.038-.04-.038-.054 0-.036-.283-.323-.318-.323-.016 0-.03-.009-.03-.02 0-.01-.015-.02-.034-.02-.018 0-.046-.018-.062-.04a.104.104 0 00-.081-.04c-.03 0-.054-.008-.054-.019 0-.01-.026-.02-.057-.02-.032 0-.058-.009-.058-.02 0-.01-.035-.02-.078-.02-.042 0-.077-.008-.077-.02s-.45-.02-1.31-.02c-.862 0-1.311.008-1.311.02zm.833 6.558c-.018.021-.024.162-.024.555v.527h-.096c-.053 0-.096-.01-.096-.02 0-.011-.035-.02-.078-.02-.042 0-.077.009-.077.02 0 .012-.083.02-.212.02-.128 0-.212-.008-.212-.02 0-.011-.043-.02-.096-.02-.053 0-.097.009-.097.02 0 .011-.057.02-.134.02-.078 0-.135-.009-.135-.02a.02.02 0 00-.02-.02c-.012 0-.019.523-.019 1.528v1.528h2.583v.992H8.455v.993h.55c.452 0 .557.005.58.028.022.023.027.125.027.556v.527h.964v-.527c0-.43.005-.533.027-.556.033-.034.435-.042.435-.008 0 .01.026.02.058.02s.058-.01.058-.02c0-.012.077-.02.193-.02.115 0 .192.008.192.02 0 .01.035.02.078.02.042 0 .077-.01.077-.02 0-.012.057-.02.135-.02.077 0 .134.008.134.02 0 .01.01.02.02.02.012 0 .02-.517.02-1.509v-1.508H9.418V9.1h2.583v-.516c0-.33-.007-.516-.02-.516a.02.02 0 00-.018.02c0 .011-.052.02-.116.02s-.116-.009-.116-.02c0-.011-.043-.02-.096-.02-.053 0-.097.009-.097.02 0 .012-.083.02-.212.02-.128 0-.212-.008-.212-.02 0-.011-.034-.02-.077-.02-.042 0-.077.009-.077.02 0 .011-.051.02-.116.02h-.115V7.58c0-.43-.005-.532-.028-.555-.04-.042-.915-.04-.95.001z" fill="#664AA2"/></svg>