<svg width="18" height="17" viewBox="0 0 18 17" fill="none" xmlns="http://www.w3.org/2000/svg"><path opacity=".1" fill-rule="evenodd" clip-rule="evenodd" d="M6.677.834c0 .01-.036.02-.08.02-.043 0-.078.008-.078.019 0 .01-.036.02-.08.02-.043 0-.078.008-.078.019 0 .01-.018.02-.04.02-.022 0-.04.008-.04.018 0 .011-.017.02-.039.02s-.04.008-.04.02c0 .01-.017.018-.039.018s-.04.01-.04.02-.015.02-.035.02c-.019 0-.048.017-.063.038-.016.021-.04.039-.054.039-.034 0-.361.32-.361.353 0 .014-.018.038-.04.053-.022.015-.04.043-.04.062 0 .02-.008.035-.02.035-.01 0-.019.017-.019.038 0 .022-.009.04-.02.04-.01 0-.02.017-.02.038 0 .021-.008.039-.02.039-.01 0-.019.017-.019.038 0 .022-.009.039-.02.039-.01 0-.02.026-.02.058s-.008.058-.02.058c-.01 0-.019.044-.019.097 0 .053-.009.097-.02.097-.013 0-.02.335-.02.967v.968H3.495c-1.186 0-1.798.007-1.798.02 0 .01-.045.019-.099.019-.054 0-.099.008-.099.02 0 .01-.035.018-.079.018-.043 0-.079.01-.079.02s-.018.02-.04.02c-.021 0-.039.008-.039.018 0 .011-.018.02-.04.02-.021 0-.039.009-.039.02 0 .01-.018.019-.04.019-.021 0-.04.008-.04.019 0 .01-.017.02-.039.02-.021 0-.04.008-.04.019 0 .01-.013.019-.03.019s-.066.035-.107.077a.317.317 0 01-.099.078c-.028 0-.119.088-.119.117a.316.316 0 01-.079.096c-.043.04-.079.088-.079.105 0 .016-.009.03-.02.03-.01 0-.02.016-.02.035 0 .019-.017.047-.039.062a.105.105 0 00-.04.082c0 .03-.008.053-.02.053-.01 0-.02.018-.02.04 0 .02-.008.038-.019.038-.01 0-.02.026-.02.058s-.008.058-.02.058c-.01 0-.02.043-.02.097 0 .053-.008.096-.019.096-.013 0-.02 1.62-.02 4.82s.007 4.818.02 4.818c.011 0 .02.035.02.078 0 .042.009.077.02.077.01 0 .02.026.02.058s.008.058.02.058c.01 0 .019.026.019.058s.009.058.02.058c.01 0 .02.018.02.04 0 .02.008.038.02.038.01 0 .019.015.019.034 0 .02.018.047.04.063.021.015.039.04.039.054 0 .015.027.051.06.081.032.03.059.064.059.076 0 .028.17.195.199.195.012 0 .047.026.077.058s.07.058.087.058c.018 0 .032.009.032.02 0 .01.016.019.035.019.02 0 .048.017.064.038a.109.109 0 00.083.04c.03 0 .055.008.055.019 0 .01.018.019.04.019.021 0 .04.009.04.02-.001.01.035.019.078.019.044 0 .08.008.08.019 0 .01.044.02.098.02.054 0 .099.008.099.019 0 .013 2.332.02 6.956.02 4.624 0 6.956-.007 6.956-.02 0-.01.045-.02.1-.02.053 0 .098-.008.098-.019 0-.01.035-.02.079-.02.043 0 .079-.008.079-.019 0-.01.018-.02.04-.02.021 0 .04-.008.04-.018 0-.011.024-.02.054-.02a.109.109 0 00.083-.038c.016-.022.045-.04.064-.04.02 0 .035-.008.035-.018 0-.011.014-.02.032-.02.017 0 .056-.026.087-.058.03-.032.065-.058.077-.058a.399.399 0 00.111-.087.391.391 0 00.088-.108c0-.012.027-.046.06-.076.032-.03.059-.066.059-.08 0-.015.018-.04.04-.055.021-.016.04-.044.04-.063 0-.019.008-.034.019-.034.01 0 .02-.018.02-.039s.008-.039.02-.039c.01 0 .02-.026.02-.058s.008-.058.019-.058c.01 0 .02-.026.02-.058s.009-.058.02-.058c.01 0 .02-.035.02-.077 0-.043.008-.078.019-.078.013 0 .02-1.625.02-4.838s-.007-4.838-.02-4.838c-.01 0-.02-.035-.02-.078 0-.042-.009-.077-.02-.077-.01 0-.02-.026-.02-.058s-.008-.058-.02-.058c-.01 0-.019-.026-.019-.058s-.009-.058-.02-.058c-.01 0-.02-.018-.02-.04 0-.02-.008-.038-.02-.038-.01 0-.019-.015-.019-.034 0-.02-.018-.047-.04-.063-.021-.015-.039-.04-.039-.054 0-.015-.027-.051-.06-.081-.032-.03-.059-.064-.059-.076a.65.65 0 00-.199-.195c-.012 0-.047-.026-.077-.058s-.07-.058-.087-.058c-.018 0-.032-.009-.032-.02 0-.01-.016-.019-.035-.019-.02 0-.048-.017-.064-.038a.109.109 0 00-.083-.04c-.03 0-.055-.008-.055-.019 0-.01-.018-.019-.04-.019-.021 0-.039-.009-.039-.02 0-.01-.036-.019-.079-.019-.043 0-.08-.008-.08-.019 0-.01-.044-.02-.098-.02-.054 0-.099-.008-.099-.019 0-.012-.612-.019-1.798-.019h-1.798v-.968c0-.632-.007-.967-.02-.967-.011 0-.02-.044-.02-.097 0-.053-.009-.097-.02-.097-.01 0-.02-.026-.02-.058s-.008-.058-.02-.058c-.01 0-.019-.017-.019-.039 0-.021-.009-.038-.02-.038-.01 0-.02-.018-.02-.04 0-.02-.008-.038-.02-.038-.01 0-.019-.017-.019-.039 0-.02-.009-.038-.02-.038-.01 0-.02-.016-.02-.035 0-.019-.017-.047-.04-.062-.02-.015-.039-.04-.039-.053 0-.033-.327-.353-.36-.353-.015 0-.039-.018-.055-.04-.015-.02-.044-.038-.063-.038-.02 0-.035-.009-.035-.02 0-.01-.018-.019-.04-.019-.022 0-.04-.008-.04-.019 0-.01-.017-.02-.039-.02s-.04-.008-.04-.019c0-.01-.017-.019-.039-.019s-.04-.009-.04-.02c0-.01-.026-.019-.059-.019-.032 0-.06-.008-.06-.019 0-.01-.044-.02-.098-.02-.054 0-.099-.008-.099-.019 0-.012-.672-.02-1.976-.02-1.304 0-1.976.008-1.976.02zm3.676 2.439v.832h-3.4V2.441h3.4v.832z" fill="#664AA2"/></svg>