<svg width="40" height="40" viewBox="0 0 40 40" fill="none" xmlns="http://www.w3.org/2000/svg"><mask id="b" maskUnits="userSpaceOnUse" x="0" y="0" width="40" height="40"><mask id="a" fill="#fff"><rect width="40" height="40" rx="4"/></mask><rect width="40" height="40" rx="4" stroke="#36A8A2" stroke-width="10" mask="url(#a)"/><path fill-rule="evenodd" clip-rule="evenodd" d="M7.814.047c0 .026-.14.046-.326.046s-.325.02-.325.047c0 .025-.105.046-.233.046s-.232.021-.232.047c0 .025-.084.046-.186.046-.103 0-.186.021-.186.047 0 .025-.063.046-.14.046-.077 0-.14.021-.14.047 0 .025-.062.046-.139.046-.077 0-.14.021-.14.047 0 .025-.062.046-.14.046-.076 0-.139.021-.139.047 0 .025-.041.046-.093.046-.05 0-.093.021-.093.047 0 .025-.042.046-.093.046-.05 0-.093.021-.093.047 0 .025-.042.046-.093.046-.05 0-.093.021-.093.047 0 .025-.042.046-.093.046-.05 0-.093.021-.093.047 0 .025-.042.046-.093.046s-.093.021-.093.047c0 .025-.042.046-.093.046s-.093.021-.093.047c0 .025-.037.046-.083.046-.045 0-.113.042-.15.093-.036.051-.1.093-.139.093-.04 0-.103.042-.14.093-.036.052-.1.093-.14.093-.039 0-.102.042-.139.093-.036.052-.095.093-.129.093s-.185.126-.336.28c-.15.153-.296.279-.324.279-.065 0-.56.494-.56.56 0 .028-.104.152-.232.277-.128.124-.233.25-.233.28 0 .03-.062.113-.14.185-.076.072-.139.16-.139.194 0 .036-.041.095-.093.131-.05.037-.093.105-.093.15 0 .046-.02.083-.046.083s-.047.037-.047.083c0 .045-.042.113-.093.15-.05.036-.093.104-.093.15 0 .045-.02.082-.046.082s-.047.042-.047.093-.02.093-.046.093-.047.042-.047.093-.02.093-.046.093-.047.063-.047.14c0 .077-.02.14-.046.14s-.047.041-.047.092c0 .052-.02.093-.046.093s-.047.063-.047.14c0 .077-.02.14-.046.14s-.047.041-.047.092c0 .052-.02.093-.046.093s-.047.084-.047.187c0 .102-.02.186-.046.186s-.047.062-.047.14c0 .076-.02.139-.046.139s-.047.104-.047.232-.02.233-.046.233-.047.124-.047.279c0 .155-.02.279-.046.279C.016 7.628 0 11.783 0 20c0 8.217.016 12.372.047 12.372.025 0 .046.124.046.28 0 .154.02.278.047.278.025 0 .046.105.046.233s.021.232.047.232c.025 0 .046.063.046.14 0 .077.021.14.047.14.025 0 .046.083.046.186 0 .102.021.186.047.186.025 0 .046.062.046.139 0 .077.021.14.047.14.025 0 .046.041.046.093 0 .05.021.093.047.093.025 0 .046.041.046.093 0 .05.021.093.047.093.025 0 .046.063.046.14 0 .076.021.139.047.139.025 0 .046.042.046.093 0 .05.021.093.047.093.025 0 .046.042.046.093s.021.093.047.093c.025 0 .046.037.046.083 0 .045.042.112.093.15.051.036.093.104.093.15 0 .045.021.082.047.082.025 0 .046.037.046.083 0 .045.042.113.093.15.052.036.093.095.093.13 0 .036.063.123.14.195.077.072.14.155.14.185s.104.156.232.28c.128.125.233.25.233.277 0 .066.494.56.56.56.028 0 .152.105.277.233.124.128.25.233.28.233.03 0 .113.062.185.14.072.076.16.139.194.139.036 0 .095.042.131.093.037.05.1.093.14.093.04 0 .103.042.14.093.036.05.104.093.15.093.045 0 .082.02.082.046s.042.047.093.047.093.02.093.046.042.047.093.047.093.02.093.046.042.047.093.047.093.02.093.046.042.047.093.047.093.02.093.046.042.047.093.047.093.02.093.046.042.047.093.047c.052 0 .093.02.093.046s.063.047.14.047c.077 0 .14.02.14.046s.062.047.139.047c.077 0 .14.02.14.046s.062.047.14.047c.076 0 .139.02.139.046s.083.047.186.047c.102 0 .186.02.186.046s.104.047.232.047.233.02.233.047c0 .026.14.046.325.046.186 0 .326.02.326.047 0 .03 4.093.046 12.186.046s12.186-.016 12.186-.047c0-.025.124-.046.28-.046.154 0 .278-.02.278-.046s.105-.047.233-.047.232-.021.232-.047c0-.025.084-.046.186-.046.103 0 .186-.021.186-.047 0-.025.063-.046.14-.046.077 0 .14-.021.14-.047 0-.025.062-.046.139-.046.077 0 .14-.021.14-.047 0-.025.062-.046.14-.046.076 0 .139-.021.139-.047 0-.025.062-.046.14-.046.076 0 .139-.021.139-.047 0-.025.041-.046.093-.046.05 0 .093-.021.093-.047 0-.025.042-.046.093-.046.05 0 .093-.021.093-.047 0-.025.042-.046.093-.046s.093-.021.093-.047c0-.025.037-.046.083-.046.045 0 .113-.042.15-.093.036-.051.104-.093.15-.093.045 0 .082-.021.082-.047 0-.025.037-.046.083-.046.045 0 .113-.042.15-.093.036-.051.1-.093.139-.093.04 0 .103-.042.14-.093.036-.052.095-.093.13-.093s.143-.084.242-.187c.098-.102.201-.186.229-.186.067 0 1.12-1.053 1.12-1.12 0-.028.062-.11.139-.182.077-.072.14-.155.14-.186 0-.03.062-.114.14-.186.076-.072.139-.16.139-.194 0-.036.041-.095.093-.132.05-.036.093-.104.093-.15 0-.045.02-.082.046-.082s.047-.042.047-.093.02-.093.046-.093.047-.042.047-.093.02-.093.046-.093.047-.037.047-.083c0-.045.042-.113.093-.15a.254.254 0 00.093-.196c0-.071.02-.13.046-.13s.047-.041.047-.092.02-.093.046-.093.047-.042.047-.093.02-.093.046-.093.047-.063.047-.14c0-.077.02-.14.046-.14s.047-.062.047-.139c0-.077.02-.14.046-.14s.047-.083.047-.186c0-.102.02-.186.046-.186s.047-.083.047-.186c0-.102.02-.186.046-.186s.047-.104.047-.232.02-.233.047-.233.046-.17.046-.418c0-.248.019-.419.047-.419.03 0 .046-3.969.046-11.814 0-7.845-.016-11.814-.047-11.814-.027 0-.046-.17-.046-.419 0-.248-.019-.418-.046-.418-.026 0-.047-.105-.047-.233s-.021-.232-.047-.232c-.025 0-.046-.084-.046-.186 0-.103-.021-.186-.047-.186-.025 0-.046-.084-.046-.186 0-.103-.021-.186-.047-.186-.025 0-.046-.063-.046-.14 0-.077-.021-.14-.047-.14-.025 0-.046-.062-.046-.14 0-.076-.021-.139-.047-.139-.025 0-.046-.041-.046-.093 0-.05-.021-.093-.047-.093-.025 0-.046-.042-.046-.093 0-.05-.021-.093-.047-.093-.025 0-.046-.042-.046-.093 0-.05-.021-.093-.047-.093-.025 0-.046-.042-.046-.093 0-.05-.021-.093-.047-.093-.025 0-.046-.042-.046-.093s-.021-.093-.047-.093c-.025 0-.046-.042-.046-.093s-.021-.093-.047-.093c-.025 0-.046-.042-.046-.093s-.021-.093-.047-.093c-.025 0-.046-.037-.046-.083 0-.045-.042-.113-.093-.15-.051-.036-.093-.095-.093-.13 0-.036-.063-.123-.14-.195-.077-.072-.14-.155-.14-.186 0-.03-.062-.114-.139-.186-.077-.072-.14-.154-.14-.182 0-.067-1.052-1.12-1.119-1.12-.028 0-.131-.084-.23-.187-.098-.102-.206-.186-.241-.186s-.094-.041-.13-.093c-.037-.05-.1-.093-.14-.093-.04 0-.103-.041-.14-.093-.036-.05-.104-.093-.15-.093-.045 0-.082-.02-.082-.046s-.037-.047-.083-.047c-.045 0-.113-.042-.15-.093-.036-.05-.104-.093-.15-.093-.045 0-.082-.02-.082-.046S35.214.93 35.163.93 35.07.91 35.07.884s-.042-.047-.093-.047-.093-.02-.093-.046-.042-.047-.093-.047-.093-.02-.093-.046-.063-.047-.14-.047c-.077 0-.14-.02-.14-.046s-.062-.047-.139-.047c-.077 0-.14-.02-.14-.046S34.078.465 34 .465c-.077 0-.14-.02-.14-.046s-.062-.047-.14-.047c-.076 0-.139-.02-.139-.046s-.083-.047-.186-.047c-.102 0-.186-.02-.186-.046s-.104-.047-.232-.047-.233-.02-.233-.046-.124-.047-.279-.047c-.155 0-.279-.02-.279-.046C32.186.016 28.093 0 20 0S7.814.016 7.814.047zm24 6.697c0 .026.042.047.093.047s.093.02.093.046.042.047.093.047.093.02.093.046.032.047.07.047c.093 0 .581.488.581.58 0 .039.021.07.047.07.025 0 .046.043.046.094 0 .051.021.093.047.093.025 0 .046.042.046.093s.021.093.047.093c.028 0 .046.217.046.558 0 .341-.018.558-.046.558-.026 0-.047.058-.047.13a.254.254 0 01-.093.196c-.05.037-.093.094-.093.127 0 .085-.587.664-.673.664-.04 0-.071.02-.071.046s-.063.047-.14.047c-.076 0-.139.02-.139.046s-.105.047-.233.047-.232.02-.232.046-.063.047-.14.047c-.076 0-.14-.021-.14-.047 0-.025-.104-.046-.232-.046s-.232-.021-.232-.047c0-.025-.042-.046-.093-.046-.052 0-.093-.021-.093-.047 0-.025-.038-.046-.083-.046-.046 0-.113-.042-.15-.094-.037-.05-.095-.092-.129-.092s-.113-.052-.175-.115c-.063-.062-.115-.142-.115-.175 0-.034-.041-.092-.093-.13-.05-.036-.093-.103-.093-.149 0-.045-.02-.083-.046-.083s-.047-.042-.047-.093c0-.05-.02-.093-.046-.093s-.047-.104-.047-.232-.02-.233-.046-.233-.047-.063-.047-.14c0-.076.021-.139.047-.139.025 0 .046-.105.046-.232 0-.128.021-.233.047-.233.025 0 .046-.063.046-.14 0-.076.021-.14.047-.14s.046-.03.046-.07c0-.086.579-.673.664-.673.033 0 .09-.042.127-.093a.254.254 0 01.196-.093c.072 0 .13-.021.13-.047 0-.028.217-.046.558-.046.34 0 .558.018.558.046zm-10.79 3.349c0 .027.139.046.325.046s.325.02.325.047c0 .026.105.047.233.047s.233.02.233.046.083.047.186.047c.102 0 .186.02.186.046s.083.047.186.047c.102 0 .186.02.186.046s.063.047.14.047c.076 0 .139.02.139.046s.063.047.14.047c.076 0 .139.02.139.046s.042.047.093.047.093.02.093.046.063.047.14.047c.076 0 .139.02.139.046s.042.047.093.047.093.02.093.046.042.047.093.047.093.02.093.046.042.047.093.047.093.02.093.046.042.047.093.047.093.02.093.046.042.047.093.047.093.02.093.046.038.047.083.047c.045 0 .113.042.15.093.037.051.104.093.15.093.045 0 .082.02.082.046s.034.047.075.047c.04 0 .133.063.204.14.072.076.156.139.186.139.031 0 .115.063.186.14.072.076.155.139.185.139s.156.105.28.233c.125.127.25.232.277.232.066 0 .654.588.654.654 0 .027.104.152.232.276.128.125.233.251.233.281 0 .03.063.113.14.184.076.072.139.16.139.195s.042.094.093.131c.051.037.093.1.093.14 0 .04.042.102.093.14.051.036.093.103.093.149s.021.083.047.083c.025 0 .046.037.046.082 0 .046.042.113.093.15.051.037.093.105.093.15 0 .046.021.083.047.083.025 0 .046.042.046.093s.021.093.047.093c.025 0 .046.042.046.093s.021.093.047.093c.025 0 .046.042.046.093s.021.093.047.093c.025 0 .046.063.046.14 0 .076.021.139.047.139.025 0 .046.042.046.093s.021.093.047.093c.025 0 .046.063.046.14 0 .076.021.14.047.14.025 0 .046.062.046.139 0 .076.021.14.047.14.025 0 .046.062.046.139 0 .076.021.14.047.14s.046.083.046.185c0 .103.021.186.047.186s.046.084.046.186c0 .103.021.186.047.186s.046.105.046.233.021.233.047.233c.027 0 .046.17.046.418 0 .248.02.419.047.419.029 0 .046.279.046.744 0 .465-.017.744-.046.744-.028 0-.047.17-.047.419 0 .248-.018.418-.046.418-.026 0-.047.105-.047.233s-.02.233-.046.233-.047.083-.047.186c0 .102-.02.186-.046.186s-.047.083-.047.186c0 .102-.02.186-.046.186s-.047.063-.047.14c0 .076-.02.139-.046.139s-.047.063-.047.14c0 .076-.02.139-.046.139s-.047.063-.047.14c0 .076-.02.139-.046.139s-.047.042-.047.093-.02.093-.046.093-.047.042-.047.093-.02.093-.046.093-.047.063-.047.14c0 .076-.02.14-.046.14s-.047.04-.047.092c0 .051-.02.093-.046.093s-.047.042-.047.093-.02.093-.046.093-.047.037-.047.083c0 .045-.042.113-.093.15-.051.037-.093.104-.093.15 0 .045-.02.082-.046.082s-.047.038-.047.083c0 .046-.042.113-.093.15-.051.037-.093.1-.093.14 0 .04-.042.102-.093.139-.051.037-.093.096-.093.131s-.063.123-.14.194c-.076.072-.139.155-.139.184 0 .03-.126.177-.28.328-.153.15-.278.297-.278.324 0 .066-.401.467-.467.467-.027 0-.173.125-.324.279-.15.153-.298.279-.328.279-.029 0-.112.063-.184.14-.071.076-.159.139-.194.139s-.094.042-.131.093c-.037.051-.1.093-.14.093-.04 0-.102.042-.14.093-.036.051-.099.093-.139.093-.04 0-.102.042-.14.093-.036.051-.104.093-.149.093-.046 0-.083.021-.083.047 0 .025-.042.046-.093.046s-.093.021-.093.047c0 .025-.042.046-.093.046s-.093.021-.093.047c0 .025-.042.046-.093.046s-.093.021-.093.047c0 .025-.042.046-.093.046s-.093.021-.093.047c0 .025-.042.046-.093.046s-.093.021-.093.047c0 .025-.063.046-.14.046-.076 0-.14.021-.14.047 0 .025-.041.046-.092.046s-.093.021-.093.047c0 .025-.063.046-.14.046-.076 0-.14.021-.14.047 0 .025-.062.046-.139.046-.076 0-.14.021-.14.047s-.083.046-.185.046c-.103 0-.186.021-.186.047s-.084.046-.186.046c-.103 0-.186.021-.186.047s-.105.046-.233.046-.233.021-.233.047-.14.046-.325.046c-.186 0-.326.02-.326.047 0 .03-.387.046-1.07.046-.682 0-1.07-.016-1.07-.046 0-.027-.139-.047-.325-.047s-.325-.02-.325-.046-.105-.047-.233-.047-.233-.02-.233-.046-.083-.047-.186-.047c-.102 0-.186-.02-.186-.046s-.062-.047-.14-.047c-.076 0-.139-.02-.139-.046s-.063-.047-.14-.047c-.076 0-.139-.02-.139-.046s-.063-.047-.14-.047c-.076 0-.139-.02-.139-.046s-.063-.047-.14-.047c-.076 0-.139-.02-.139-.046s-.042-.047-.093-.047-.093-.02-.093-.046-.042-.047-.093-.047-.093-.02-.093-.046-.063-.047-.14-.047c-.076 0-.14-.02-.14-.046s-.041-.047-.092-.047-.093-.02-.093-.046-.042-.047-.093-.047-.093-.02-.093-.046-.037-.047-.083-.047c-.046 0-.113-.042-.15-.093-.037-.051-.104-.093-.15-.093-.045 0-.082-.02-.082-.046s-.038-.047-.083-.047c-.046 0-.113-.042-.15-.093-.037-.051-.096-.093-.131-.093s-.123-.063-.194-.14c-.072-.076-.156-.139-.187-.139-.03 0-.114-.063-.185-.14-.072-.076-.154-.14-.182-.14-.067 0-1.4-1.331-1.4-1.398 0-.027-.084-.13-.186-.229-.102-.098-.186-.207-.186-.242s-.042-.093-.093-.13c-.051-.037-.093-.1-.093-.14 0-.04-.042-.102-.093-.14-.051-.036-.093-.099-.093-.139 0-.04-.042-.102-.093-.14-.051-.036-.093-.104-.093-.149 0-.046-.021-.083-.047-.083-.025 0-.046-.042-.046-.093s-.021-.093-.047-.093c-.025 0-.046-.042-.046-.093s-.021-.093-.047-.093c-.025 0-.046-.042-.046-.093s-.021-.093-.047-.093c-.025 0-.046-.042-.046-.093s-.021-.093-.047-.093c-.025 0-.046-.042-.046-.093S10.863 24 10.837 24c-.025 0-.046-.063-.046-.14 0-.076-.021-.14-.047-.14-.025 0-.046-.04-.046-.092 0-.051-.021-.093-.047-.093-.025 0-.046-.063-.046-.14 0-.076-.021-.14-.047-.14-.025 0-.046-.062-.046-.139 0-.076-.021-.14-.047-.14-.025 0-.046-.062-.046-.139 0-.076-.021-.14-.047-.14-.025 0-.046-.083-.046-.185 0-.103-.021-.186-.047-.186-.025 0-.046-.105-.046-.233s-.021-.233-.047-.233-.046-.124-.046-.279c0-.155-.021-.279-.047-.279-.03 0-.046-.465-.046-1.302s.016-1.302.046-1.302c.026 0 .046-.124.046-.28 0-.154.021-.278.047-.278s.047-.105.047-.233.02-.233.046-.233.047-.083.047-.186c0-.102.02-.186.046-.186s.047-.063.047-.14c0-.076.02-.139.046-.139s.047-.063.047-.14c0-.076.02-.139.046-.139s.047-.063.047-.14c0-.076.02-.139.046-.139s.047-.042.047-.093.02-.093.046-.093.047-.063.047-.14c0-.076.02-.139.046-.139s.047-.042.047-.093.02-.093.046-.093.047-.042.047-.093.02-.093.046-.093.047-.042.047-.093.02-.093.046-.093.047-.042.047-.093.02-.093.046-.093.047-.042.047-.093.02-.093.046-.093.047-.037.047-.083c0-.046.042-.113.093-.15.051-.037.093-.1.093-.14 0-.04.042-.102.093-.139.051-.037.093-.1.093-.14 0-.04.042-.102.093-.139.051-.037.093-.095.093-.13s.084-.144.186-.242.186-.201.186-.23c0-.066 1.333-1.398 1.4-1.398.028 0 .11-.063.181-.14.072-.076.156-.139.187-.139.03 0 .114-.063.186-.14.071-.076.159-.14.194-.14s.094-.04.131-.092c.037-.051.104-.093.15-.093.045 0 .083-.021.083-.047 0-.025.037-.046.082-.046.046 0 .113-.042.15-.093.037-.051.104-.093.15-.093s.083-.021.083-.047c0-.025.042-.046.093-.046s.093-.021.093-.047c0-.025.042-.046.093-.046s.093-.021.093-.047c0-.025.042-.046.093-.046s.093-.021.093-.047c0-.025.063-.046.14-.046.076 0 .139-.021.139-.047 0-.025.042-.046.093-.046s.093-.021.093-.047c0-.025.063-.046.14-.046.076 0 .14-.021.14-.047 0-.025.041-.046.092-.046s.093-.021.093-.047c0-.025.084-.046.186-.046.103 0 .186-.021.186-.047 0-.025.063-.046.14-.046.077 0 .14-.021.14-.047 0-.025.083-.046.185-.046.103 0 .186-.021.186-.047 0-.025.105-.046.233-.046s.233-.021.233-.047c0-.027.14-.046.325-.046.186 0 .326-.02.326-.047 0-.03.387-.046 1.07-.046.682 0 1.07.016 1.07.046zm-1.49 1.86c0 .028-.17.047-.418.047-.248 0-.418.019-.418.046 0 .026-.105.047-.233.047s-.232.021-.232.046c0 .026-.084.047-.186.047-.103 0-.187.021-.187.047 0 .025-.083.046-.186.046-.102 0-.186.021-.186.047 0 .025-.062.046-.14.046-.076 0-.139.021-.139.047 0 .025-.042.046-.093.046-.05 0-.093.021-.093.047 0 .025-.063.046-.14.046-.076 0-.139.021-.139.047 0 .025-.042.046-.093.046s-.093.021-.093.047c0 .025-.042.046-.093.046s-.093.021-.093.047c0 .025-.042.046-.093.046s-.093.021-.093.047c0 .025-.037.046-.083.046-.045 0-.113.042-.15.093-.036.051-.104.093-.15.093-.045 0-.082.021-.082.047 0 .025-.037.046-.083.046-.045 0-.113.042-.15.093-.037.052-.095.093-.13.093-.036 0-.123.063-.195.14-.072.077-.154.14-.182.14-.067 0-1.307 1.239-1.307 1.306 0 .028-.062.11-.14.182-.076.072-.139.159-.139.194 0 .036-.041.095-.093.131-.05.037-.093.1-.093.14 0 .04-.042.103-.093.14-.05.036-.093.104-.093.15 0 .045-.02.082-.046.082s-.047.042-.047.093-.02.093-.046.093-.047.042-.047.093-.02.093-.046.093-.047.042-.047.093-.02.093-.046.093-.047.042-.047.093-.02.093-.046.093-.047.042-.047.093-.02.093-.046.093-.047.063-.047.14c0 .076-.02.14-.046.14s-.047.062-.047.139c0 .077-.02.14-.046.14s-.047.062-.047.139c0 .077-.02.14-.046.14s-.047.083-.047.185c0 .103-.02.187-.046.187s-.047.083-.047.186c0 .102-.02.186-.046.186-.027 0-.047.14-.047.325 0 .186-.02.326-.046.326-.03 0-.047.31-.047.837 0 .527.017.837.046.837.027 0 .047.14.047.326s.02.325.046.325.047.084.047.186c0 .103.021.186.046.186.026 0 .047.084.047.187 0 .102.021.186.047.186.025 0 .046.062.046.14 0 .076.021.139.047.139.025 0 .046.062.046.14 0 .076.021.139.047.139.025 0 .046.063.046.14 0 .076.021.139.047.139.025 0 .046.042.046.093s.021.093.047.093c.025 0 .046.042.046.093s.021.093.047.093c.025 0 .046.042.046.093s.021.093.047.093c.025 0 .046.042.046.093s.021.093.047.093c.025 0 .046.042.046.093s.021.093.047.093c.025 0 .046.037.046.083 0 .045.042.113.093.15.051.036.093.1.093.14 0 .039.042.102.093.139.052.037.093.096.093.13 0 .036.063.123.14.195.077.072.14.154.14.182 0 .067 1.239 1.307 1.306 1.307.028 0 .11.062.182.14.072.076.159.139.194.139.036 0 .095.041.131.093.037.05.1.093.14.093.04 0 .103.042.14.093.036.05.104.093.15.093.045 0 .082.02.082.046s.042.047.093.047.093.02.093.046.042.047.093.047.093.02.093.046.042.047.093.047.093.02.093.046.042.047.093.047.093.02.093.046.063.047.14.047c.076 0 .14.02.14.046s.041.047.092.047.093.02.093.046.063.047.14.047c.077 0 .14.02.14.046s.083.047.185.047c.103 0 .186.02.186.046s.084.047.187.047c.102 0 .186.02.186.046s.104.047.232.047.233.02.233.046c0 .028.17.047.418.047.248 0 .419.019.419.047 0 .027.17.046.418.046.248 0 .42-.019.42-.046 0-.028.185-.047.464-.047.28 0 .465-.019.465-.047 0-.025.105-.046.233-.046s.232-.021.232-.047c0-.025.084-.046.186-.046.103 0 .187-.021.187-.047 0-.025.062-.046.14-.046.076 0 .139-.021.139-.047 0-.025.062-.046.14-.046.076 0 .139-.021.139-.047 0-.025.063-.046.14-.046.076 0 .139-.021.139-.047 0-.025.042-.046.093-.046.05 0 .093-.021.093-.047 0-.025.042-.046.093-.046s.093-.021.093-.047c0-.025.042-.046.093-.046s.093-.021.093-.047c0-.025.042-.046.093-.046s.093-.021.093-.047c0-.025.042-.046.093-.046s.093-.021.093-.047c0-.025.042-.046.093-.046s.093-.021.093-.047c0-.025.037-.046.083-.046.045 0 .113-.042.15-.093.037-.052.096-.093.13-.093.036 0 .123-.063.195-.14.072-.077.155-.14.185-.14s.135-.083.234-.185c.098-.103.201-.186.23-.186.066 0 .653-.588.653-.654 0-.027.105-.152.233-.277.128-.124.233-.254.233-.289 0-.034.041-.092.093-.13.05-.036.093-.099.093-.139 0-.04.041-.102.093-.14.05-.036.093-.1.093-.139 0-.04.042-.103.093-.14.05-.036.093-.104.093-.15 0-.045.02-.082.046-.082s.047-.042.047-.093.02-.093.046-.093.047-.042.047-.093.02-.093.046-.093.047-.042.047-.093.02-.093.046-.093.047-.042.047-.093.02-.093.046-.093.047-.063.047-.14c0-.076.02-.14.046-.14s.047-.041.047-.092c0-.052.02-.093.046-.093s.047-.063.047-.14c0-.077.02-.14.046-.14s.047-.083.047-.185c0-.103.02-.186.046-.186s.047-.084.047-.187c0-.102.02-.186.046-.186s.047-.124.047-.279c0-.155.02-.279.046-.279.03 0 .047-.403.047-1.116 0-.713-.017-1.116-.047-1.116-.025 0-.046-.124-.046-.28 0-.154-.02-.278-.047-.278-.025 0-.046-.084-.046-.186 0-.103-.021-.187-.047-.187-.025 0-.046-.083-.046-.186 0-.102-.021-.186-.047-.186-.025 0-.046-.062-.046-.14 0-.076-.021-.139-.047-.139-.025 0-.046-.041-.046-.093 0-.05-.021-.093-.047-.093-.025 0-.046-.063-.046-.14 0-.076-.021-.139-.047-.139-.025 0-.046-.042-.046-.093s-.021-.093-.047-.093c-.025 0-.046-.042-.046-.093s-.021-.093-.047-.093c-.025 0-.046-.042-.046-.093s-.021-.093-.047-.093c-.025 0-.046-.042-.046-.093s-.021-.093-.047-.093c-.025 0-.046-.037-.046-.083 0-.045-.042-.113-.093-.15-.051-.036-.093-.1-.093-.14 0-.039-.042-.102-.093-.139-.052-.037-.093-.1-.093-.14 0-.039-.042-.102-.093-.139-.052-.037-.093-.095-.093-.13 0-.034-.105-.164-.233-.288-.128-.125-.233-.25-.233-.277 0-.066-.494-.56-.56-.56-.027 0-.152-.105-.277-.233-.124-.128-.25-.233-.28-.233-.03 0-.113-.062-.185-.14-.072-.076-.159-.139-.194-.139s-.095-.041-.131-.093c-.037-.05-.105-.093-.15-.093-.046 0-.083-.02-.083-.046s-.042-.047-.093-.047-.093-.02-.093-.046-.042-.047-.093-.047-.093-.02-.093-.046-.042-.047-.093-.047-.093-.02-.093-.046-.042-.047-.093-.047-.093-.02-.093-.046-.042-.047-.093-.047-.093-.02-.093-.046-.042-.047-.093-.047-.093-.02-.093-.046-.063-.047-.14-.047c-.076 0-.14-.02-.14-.046s-.062-.047-.139-.047c-.077 0-.14-.02-.14-.046s-.062-.047-.139-.047c-.077 0-.14-.02-.14-.046s-.083-.047-.186-.047c-.102 0-.186-.02-.186-.046s-.104-.047-.232-.047-.233-.02-.233-.046c0-.028-.186-.047-.465-.047s-.465-.019-.465-.046c0-.028-.17-.047-.419-.047-.248 0-.418.019-.418.046z" fill="#000"/></mask><g mask="url(#b)"><rect x="-2.5" y="-2.5" width="45" height="45" rx="8.5" fill="#36A8A2" stroke="#36A8A2" stroke-width="5"/></g></svg>